<svg height="511pt" viewBox="-16 0 511 511.99949" width="511pt" xmlns="http://www.w3.org/2000/svg"><path d="m77.339844 443.699219h187.832031v59.761719h-187.832031zm0 0" fill="#abc8bc"/><path d="m431.65625 213.175781h-98.183594v-17.074219h-324.433594v188.683594c0 37.566406 30.734376 67.449219 67.445313 67.449219h188.6875c37.566406 0 67.445313-30.734375 67.445313-67.449219v-.851562h4.269531c74.28125 0 133.191406-58.910156 133.191406-132.335938 0-21.34375-17.074219-38.421875-38.421875-38.421875zm-93.914062 136.605469h-4.269532v-102.453125h98.183594c2.5625 0 4.269531 1.707031 4.269531 4.269531 0 53.789063-44.394531 98.183594-98.183593 98.183594zm0 0" fill="#eef1eb"/><path d="m43.1875 196.101562h256.132812v170.757813c0 28.171875-23.050781 51.226563-51.226562 51.226563h-154.53125c-28.175781 0-50.375-23.054688-50.375-51.226563zm0 0" fill="#92543e"/><path d="m324.9375 153.414062c0-21.347656-16.222656-40.128906-37.566406-41.835937 14.511718-11.953125 16.21875-33.296875 4.265625-47.8125-6.828125-8.539063-16.21875-12.804687-26.464844-12.804687h-18.785156c-30.734375 0-59.761719-16.222657-75.132813-42.691407-16.21875 26.46875-44.394531 42.691407-75.132812 42.691407h-18.78125c-18.78125 0-34.152344 15.367187-34.152344 34.148437 0 10.246094 4.269531 19.636719 11.953125 26.46875-23.050781 2.5625-40.125 23.90625-37.5625 46.957031 2.558594 21.34375 20.488281 37.566406 42.6875 37.566406h-17.078125v75.984376l28.175781-15.367188c30.738281-16.222656 66.59375-17.929688 98.183594-3.414062 28.175781 12.804687 59.765625 12.804687 87.941406 1.707031l40.980469-17.074219v-41.835938h-17.078125c24.761719 0 43.546875-18.785156 43.546875-42.6875zm0 0" fill="#fae9c4"/><path d="m170.402344 253.304688c28.175781 12.804687 59.765625 12.804687 87.9375 1.707031l40.980468-17.074219v-41.835938h-256.132812v75.984376l28.175781-15.367188c30.738281-17.074219 67.449219-17.929688 99.039063-3.414062zm0 0" fill="#a97b56"/><g fill="#a55f40"><path d="m162.71875 59.496094h17.074219v17.078125h-17.074219zm0 0"/><path d="m188.332031 76.574219h17.074219v17.074219h-17.074219zm0 0"/><path d="m137.105469 76.574219h17.074219v17.074219h-17.074219zm0 0"/><path d="m162.71875 102.1875h17.074219v17.074219h-17.074219zm0 0"/><path d="m213.945312 102.1875h17.074219v17.074219h-17.074219zm0 0"/><path d="m111.492188 102.1875h17.074218v17.074219h-17.074218zm0 0"/></g><path d="m431.65625 204.640625h-89.644531v-8.539063c0-5.121093-3.414063-8.539062-8.539063-8.539062h-12.804687c18.78125-20.488281 17.074219-52.933594-3.417969-71.714844-4.265625-4.269531-9.390625-6.832031-14.511719-9.390625 3.414063-6.832031 5.976563-13.664062 5.976563-21.347656 0-23.90625-18.785156-42.6875-42.6875-42.6875h-18.785156c-28.175782 0-53.789063-14.515625-68.304688-38.417969-2.558594-4.269531-8.535156-5.125-11.953125-2.5625-.851563.851563-1.707031 1.707032-2.558594 2.5625-14.515625 23.902344-40.128906 38.417969-68.304687 38.417969h-18.78125c-23.90625 0-42.6875 18.78125-42.6875 42.6875 0 7.683594 1.707031 14.515625 5.976562 21.347656-25.613281 11.097657-38.421875 40.980469-27.320312 66.59375 2.558594 5.121094 5.121094 10.246094 9.390625 14.511719h-13.660157c-5.125 0-8.539062 3.417969-8.539062 8.539062v188.683594c0 39.273438 29.882812 71.71875 68.300781 75.988282v42.6875c0 5.125 3.414063 8.539062 8.539063 8.539062h187.832031c5.121094 0 8.535156-3.414062 8.535156-8.539062v-43.542969c35.859375-4.265625 64.035157-32.441407 68.304688-68.300781 75.984375-1.707032 136.601562-64.035157 136.601562-140.019532.003907-25.613281-21.34375-46.957031-46.957031-46.957031zm-89.644531 51.226563h85.378906c-2.5625 46.101562-39.277344 82.816406-85.378906 85.378906zm-51.226563-51.226563v27.320313l-35.859375 14.515624c-26.46875 11.097657-55.496093 10.242188-81.109375-1.710937-34.152344-15.367187-73.425781-13.660156-105.867187 4.269531l-16.222657 8.539063v-52.933594zm-239.058594 72.570313 23.90625-12.808594c28.175782-15.367188 61.472657-16.21875 90.5-3.414063 29.882813 13.660157 64.035157 14.515625 94.769532 1.707031l29.027344-11.953124v116.117187c0 23.050781-18.78125 41.832031-42.6875 42.6875h-153.679688c-23.054688 0-41.835938-18.785156-41.835938-42.6875zm5.121094-157.949219c4.269532-.855469 7.683594-5.121094 7.683594-9.390625 0-2.5625-1.707031-4.269532-3.414062-5.976563-11.097657-8.539062-12.804688-24.761719-3.414063-35.859375 5.121094-5.125 11.953125-8.539062 19.636719-8.539062h18.78125c29.03125 0 57.203125-13.660156 75.132812-36.710938 18.785156 23.050782 46.105469 36.710938 75.132813 36.710938h18.785156c13.660156 0 25.613281 11.101562 25.613281 25.613281 0 7.683594-3.414062 14.515625-9.390625 19.636719-3.417969 3.417968-4.269531 8.539062-.855469 11.953125 1.707032 1.710937 3.414063 2.5625 5.976563 3.417969 18.78125 1.707031 32.445313 18.78125 29.882813 37.5625-1.707032 17.078124-16.222657 30.738281-34.152344 30.738281h-221.980469c-18.785156 0-34.152344-15.367188-34.152344-34.152344 0-17.929687 12.804688-32.441406 30.734375-35.003906zm199.785156 375.660156h-170.753906v-34.148437h170.753906zm68.304688-110.136719c0 32.445313-26.46875 58.914063-58.914062 58.914063h-189.539063c-32.441406 0-58.910156-26.46875-58.910156-58.914063v-180.144531h17.078125v162.214844c0 32.445312 26.464844 58.914062 59.761718 59.765625h154.535157c32.445312 0 58.910156-26.46875 58.910156-59.765625v-162.214844h17.078125zm17.074219-9.390625v-17.074219c57.203125-2.5625 102.453125-49.519531 102.453125-106.722656 0-6.832031-5.976563-12.808594-12.808594-12.808594h-89.644531v-17.074218h89.644531c17.078125 0 29.882812 13.660156 29.882812 29.882812 0 66.59375-52.933593 121.234375-119.527343 123.796875zm0 0"/><path d="m162.71875 59.496094h17.074219v17.078125h-17.074219zm0 0"/><path d="m188.332031 76.574219h17.074219v17.074219h-17.074219zm0 0"/><path d="m137.105469 76.574219h17.074219v17.074219h-17.074219zm0 0"/><path d="m162.71875 102.1875h17.074219v17.074219h-17.074219zm0 0"/><path d="m213.945312 102.1875h17.074219v17.074219h-17.074219zm0 0"/><path d="m111.492188 102.1875h17.074218v17.074219h-17.074218zm0 0"/></svg>